<?xml version="1.0" standalone="no"?>
<!DOCTYPE svg PUBLIC "-//W3C//DTD SVG 20010904//EN"
 "http://www.w3.org/TR/2001/REC-SVG-20010904/DTD/svg10.dtd">
<svg version="1.0" xmlns="http://www.w3.org/2000/svg"
 width="1280.000000pt" height="1094.000000pt" viewBox="0 0 1280.000000 1094.000000"
 preserveAspectRatio="xMidYMid meet">
<metadata>
Created by potrace 1.15, written by Peter Selinger 2001-2017
</metadata>
<g transform="translate(0.000000,1094.000000) scale(0.100000,-0.100000)"
fill="#000000" stroke="none">
<path d="M2693 10928 c-43 -53 -63 -156 -63 -320 l0 -115 -45 -6 c-103 -11
-194 -91 -229 -201 -26 -78 -38 -189 -34 -319 2 -64 3 -117 2 -117 -22 1 -128
-27 -154 -40 -43 -22 -102 -85 -128 -137 -66 -130 -68 -404 -7 -671 8 -35 15
-67 15 -71 0 -5 -26 -24 -58 -44 -32 -20 -77 -57 -100 -81 l-42 -46 0 -241 0
-241 34 -41 c71 -88 89 -153 101 -357 3 -58 15 -140 25 -182 34 -136 74 -197
262 -398 132 -140 158 -187 158 -284 0 -82 -11 -122 -73 -266 -24 -58 -50
-131 -57 -162 l-13 -57 34 -46 c19 -25 96 -93 171 -150 75 -58 161 -133 192
-167 59 -67 290 -359 332 -419 l25 -37 -85 -106 c-56 -70 -87 -118 -90 -139
-2 -18 -9 -74 -14 -124 -6 -52 -18 -105 -28 -122 -16 -28 -16 -30 5 -64 44
-72 132 -119 328 -178 164 -49 246 -85 294 -127 l36 -31 6 -178 c7 -181 15
-240 45 -302 10 -22 12 -36 6 -38 -32 -11 -120 -72 -138 -95 l-20 -28 25 -42
c26 -47 28 -77 19 -413 -4 -157 6 -212 47 -257 15 -17 15 -18 -8 -18 -46 -1
-105 -38 -179 -114 -46 -47 -96 -87 -128 -103 -60 -29 -69 -44 -126 -196 -46
-122 -89 -289 -112 -432 -17 -108 -18 -111 -68 -170 -240 -285 -441 -454 -693
-583 -181 -93 -393 -160 -608 -193 -67 -11 -75 -14 -51 -20 40 -11 63 -35 70
-73 12 -64 24 -62 -292 -54 -281 6 -352 12 -352 28 0 13 92 28 202 34 54 3
113 12 132 20 32 13 75 61 64 71 -3 3 -32 -1 -64 -10 -32 -8 -140 -24 -238
-35 -203 -23 -282 -41 -342 -76 -42 -24 -94 -77 -94 -96 0 -7 103 -8 318 -3
340 7 451 0 546 -35 92 -35 94 -39 31 -85 -179 -130 -346 -195 -585 -229 -92
-13 -94 -14 -65 -26 49 -21 162 -24 233 -5 35 9 129 45 208 81 255 114 276
119 448 117 142 -2 150 -1 199 24 117 59 217 202 225 321 l4 63 92 68 c352
261 621 582 829 989 83 161 90 191 57 244 -28 47 -25 59 24 101 25 20 79 81
121 136 92 121 160 171 230 171 33 0 51 -30 70 -115 23 -101 33 -122 79 -161
40 -34 40 -35 24 -62 -9 -15 -51 -46 -95 -70 -42 -24 -81 -49 -85 -55 -4 -7
-8 -43 -8 -80 l0 -68 -218 -223 c-367 -375 -526 -575 -650 -821 -21 -43 -63
-94 -144 -174 -271 -271 -499 -386 -938 -473 -132 -26 -168 -37 -245 -77 l-90
-46 -140 3 -140 2 -188 -51 c-206 -55 -293 -64 -364 -34 -37 15 -93 61 -93 76
0 10 52 18 200 28 74 6 155 17 179 26 44 15 111 59 111 73 0 4 -30 5 -67 3
-77 -4 -387 15 -573 34 -69 7 -127 12 -128 10 -9 -9 33 -125 61 -169 83 -131
246 -173 577 -146 85 6 232 13 325 15 169 3 171 3 265 39 52 20 114 40 137 43
47 6 93 -2 93 -18 0 -5 -62 -40 -137 -76 -76 -36 -189 -89 -250 -119 -62 -29
-139 -71 -170 -92 -60 -41 -151 -131 -172 -170 -16 -31 -28 -28 -53 14 -25 43
-61 45 -66 3 -7 -57 -44 -70 -159 -55 -60 8 -63 7 -90 -20 l-28 -28 45 -9 c25
-5 117 -10 205 -10 365 0 566 92 997 456 293 248 325 269 531 357 65 27 137
63 161 79 94 65 210 205 686 826 288 376 393 499 558 658 l71 68 31 -16 c17
-9 52 -19 78 -22 42 -4 62 2 182 55 393 173 718 270 1065 317 158 21 496 30
664 17 l135 -11 25 -33 c44 -59 98 -105 218 -188 65 -45 137 -98 160 -117 39
-31 49 -34 123 -38 150 -7 241 -45 340 -140 64 -62 66 -63 163 -83 61 -13 178
-53 310 -106 264 -106 314 -119 446 -121 l105 -1 50 -44 c82 -74 199 -164 435
-332 346 -249 514 -389 632 -529 l38 -46 -141 -23 c-218 -35 -225 -38 -326
-123 -90 -77 -152 -140 -152 -157 0 -5 7 -16 16 -24 21 -22 90 -13 284 36 191
48 318 59 403 34 l57 -17 0 -118 c0 -357 128 -691 318 -831 69 -51 158 -92
225 -104 l37 -7 -6 43 c-11 77 -54 191 -119 313 -34 66 -71 145 -81 175 -26
79 -23 196 7 285 l24 70 35 -3 c19 -2 166 -26 325 -53 509 -89 558 -97 685
-113 174 -22 354 -36 492 -36 l117 0 33 -41 c77 -96 91 -109 126 -119 34 -9
39 -7 72 24 39 37 89 66 117 66 13 0 4 12 -29 40 -26 22 -85 92 -133 155 l-85
115 -120 0 c-66 0 -120 2 -120 5 0 3 6 14 13 25 16 26 -3 40 -55 40 -23 0 -45
7 -56 17 -15 16 -41 18 -217 19 -225 2 -378 23 -507 71 l-73 27 215 17 c118
10 312 25 430 34 337 27 551 12 718 -51 35 -13 66 -24 68 -24 6 0 -19 65 -35
90 -8 14 -34 50 -57 80 -23 31 -50 73 -60 95 -18 36 -24 40 -89 58 -173 45
-356 40 -672 -17 -276 -51 -320 -56 -450 -56 -157 0 -233 18 -349 80 -52 27
-136 72 -186 99 -51 27 -154 70 -228 96 -157 54 -202 80 -229 133 -30 59 -52
70 -191 98 -175 35 -205 56 -346 235 -70 90 -107 125 -237 227 -85 66 -175
145 -201 174 -65 74 -137 218 -108 218 21 0 43 66 52 162 6 56 15 117 20 133
10 30 12 31 109 42 171 21 283 75 546 267 82 60 220 152 305 204 318 194 524
347 775 577 276 252 289 261 705 500 366 210 515 319 655 483 67 77 73 89 132
249 271 729 457 1483 667 2707 18 107 28 141 42 149 46 26 111 99 186 211 127
189 156 220 221 236 33 7 90 11 144 8 80 -4 98 -8 172 -45 l82 -41 15 24 c22
33 28 95 14 139 -7 21 -48 85 -92 142 -110 144 -125 180 -142 344 -16 146 -32
203 -73 258 -14 20 -90 99 -168 176 -78 77 -149 156 -158 176 -16 35 -19 37
-76 41 -47 3 -84 16 -174 61 -115 56 -204 81 -259 70 -40 -8 -53 -56 -52 -193
1 -75 7 -132 18 -165 19 -59 18 -61 -79 -105 -64 -29 -162 -50 -239 -50 -79 0
-259 -99 -421 -230 -169 -138 -316 -316 -575 -695 -360 -528 -514 -706 -752
-868 -241 -163 -561 -257 -879 -257 l-82 0 -35 -41 c-43 -50 -85 -69 -150 -69
-78 0 -95 31 -70 125 7 24 10 47 7 50 -8 7 -416 71 -644 100 -487 61 -797 79
-1272 72 -465 -6 -732 -35 -1051 -110 -73 -18 -105 -22 -107 -14 -2 7 -34 131
-71 277 -142 566 -235 777 -437 981 -97 98 -116 133 -272 499 -185 434 -263
564 -438 730 -67 63 -238 230 -379 372 -329 328 -435 408 -629 479 -139 51
-326 82 -346 57z m872 -551 c227 -133 477 -440 705 -867 123 -229 266 -554
364 -825 63 -173 77 -188 134 -140 33 27 64 32 79 13 6 -7 18 -38 28 -68 10
-30 62 -171 117 -314 55 -142 112 -308 129 -370 28 -108 59 -330 47 -342 -4
-3 -37 13 -74 35 -174 105 -351 142 -735 156 l-187 7 -16 -23 c-22 -32 -20
-44 13 -93 17 -24 33 -54 36 -67 5 -22 0 -27 -42 -48 -77 -37 -203 -123 -267
-182 -75 -68 -161 -184 -204 -275 l-34 -70 -101 -44 c-139 -59 -352 -166 -406
-203 -38 -26 -49 -29 -92 -24 -65 8 -97 26 -177 101 -67 64 -105 88 -153 99
-21 6 -25 11 -22 31 7 33 -13 90 -44 126 -14 17 -65 58 -115 92 -133 91 -149
120 -163 283 -8 105 -21 147 -61 193 -38 45 -33 65 26 91 l38 17 -109 144
c-180 237 -244 369 -256 519 -6 84 13 184 46 250 l20 38 56 -9 c125 -19 193
-76 323 -267 49 -73 97 -131 131 -159 29 -24 55 -41 57 -39 3 2 -27 59 -66
127 -184 318 -271 553 -301 810 -14 127 -6 321 18 440 l18 85 39 -3 c80 -7
113 -37 186 -172 28 -52 60 -103 70 -114 17 -17 18 -17 36 29 22 58 14 105
-42 252 -30 80 -38 115 -42 189 -8 164 35 243 163 299 94 42 159 49 397 42
212 -6 258 -2 258 23 0 5 -18 30 -40 55 -22 25 -40 52 -40 59 0 7 15 26 33 42
17 17 49 51 70 77 36 45 38 46 70 35 17 -7 55 -25 82 -41z m8338 -873 c27 -5
42 -15 55 -36 9 -16 32 -38 50 -50 35 -21 41 -48 17 -72 -14 -13 -22 -12 -78
14 -168 79 -336 79 -481 2 -83 -44 -187 -156 -235 -253 -53 -108 -71 -183 -71
-289 0 -99 20 -186 57 -250 36 -61 108 -136 161 -167 31 -19 41 -30 37 -42
-13 -31 -55 -204 -55 -224 0 -36 48 -104 97 -136 110 -73 253 -79 325 -15 20
19 20 19 14 -26 -4 -25 -13 -106 -21 -180 -42 -373 -130 -901 -191 -1145 -85
-338 -201 -592 -305 -666 l-30 -21 6 38 c4 22 29 131 56 244 62 262 72 332 66
455 -4 94 -36 215 -55 215 -15 0 -54 -71 -72 -127 -9 -32 -22 -101 -29 -153
-43 -363 -50 -395 -102 -473 -30 -45 -56 -65 -114 -87 -23 -9 -24 -8 -18 23 3
18 30 111 59 207 67 226 77 277 72 391 -3 79 -8 103 -33 154 l-29 60 -7 -145
c-9 -204 -48 -353 -132 -503 -66 -117 -196 -271 -214 -253 -14 14 -7 130 10
183 10 28 56 112 102 186 129 208 117 161 123 481 8 424 7 565 -7 631 -7 33
-16 64 -18 68 -14 23 -93 -132 -183 -359 -39 -98 -90 -210 -115 -249 -41 -66
-158 -195 -177 -195 -4 0 -8 -48 -8 -107 l-1 -108 -86 -75 c-116 -101 -461
-444 -610 -608 l-122 -133 15 -34 c28 -68 12 -151 -44 -215 -41 -49 -79 -70
-127 -70 -66 0 -61 39 21 161 54 81 55 86 51 139 -3 30 -6 62 -8 71 -3 10 14
29 41 50 50 38 101 105 203 264 81 125 118 155 235 191 65 20 95 35 129 66 54
51 122 159 162 260 31 80 71 251 71 310 0 28 9 39 58 78 88 70 154 166 258
378 76 154 93 197 83 208 -20 25 -47 15 -106 -39 -67 -62 -92 -77 -127 -77
-20 0 -27 -6 -32 -27 -12 -52 -46 -94 -123 -152 -104 -79 -145 -127 -246 -283
-48 -73 -103 -150 -123 -172 -52 -55 -171 -130 -244 -155 -69 -23 -170 -28
-215 -10 -54 22 -104 5 -218 -76 -70 -50 -126 -75 -166 -75 -36 0 -38 19 -6
80 28 57 77 82 212 110 55 11 115 25 133 31 43 14 87 52 102 89 10 25 18 30
46 30 143 0 310 91 440 241 95 110 256 369 228 369 -52 0 -130 -70 -254 -230
-138 -177 -213 -242 -313 -271 -27 -8 -29 -7 -22 18 3 14 24 52 46 85 51 74
78 135 79 171 l0 28 -42 -23 c-23 -13 -68 -55 -100 -95 -76 -93 -108 -116
-174 -121 l-52 -4 5 -33 c15 -90 -118 -186 -213 -155 -19 7 -34 15 -34 20 0 4
71 80 158 168 l157 159 -207 -102 c-333 -165 -450 -203 -654 -212 -134 -6
-217 3 -326 35 -51 15 -57 19 -52 39 4 14 -3 39 -15 63 -28 54 -27 84 6 109
30 25 43 28 141 35 81 7 84 4 52 -57 -11 -20 -20 -52 -20 -70 l0 -34 68 -11
c107 -18 130 -19 223 -11 156 15 245 49 514 195 208 114 302 153 392 161 75 7
82 14 130 138 20 51 42 84 81 124 l53 54 -42 -7 c-62 -10 -136 -53 -288 -167
-73 -55 -164 -115 -202 -135 -78 -39 -184 -67 -238 -62 l-36 3 55 56 c70 70
142 118 305 204 72 37 161 88 200 114 187 123 349 324 635 791 312 509 451
682 658 817 196 129 513 244 722 262 131 11 150 12 193 5z m-146 -179 c90 -17
137 -19 162 -6 15 8 21 4 34 -24 20 -43 52 -64 127 -84 l58 -16 -42 -47 c-57
-64 -79 -69 -103 -21 -11 25 -33 46 -61 61 -47 26 -181 56 -296 67 -42 4 -76
12 -76 17 0 5 13 23 29 39 34 34 55 36 168 14z m-237 -72 c-1 -17 -27 -53 -52
-72 -26 -21 -109 -61 -155 -75 -30 -9 -31 16 -3 61 23 38 45 51 125 74 68 20
85 22 85 12z m228 -79 c18 -12 20 -18 12 -34 -31 -58 -198 -77 -249 -29 -36
34 -26 43 72 66 96 22 126 22 165 -3z m-394 -163 c-8 -59 7 -91 42 -91 22 0
23 -2 13 -21 -10 -20 -9 -21 20 -14 29 6 31 5 31 -22 0 -35 27 -61 88 -88 23
-10 42 -21 42 -25 0 -10 -54 -83 -74 -99 -26 -22 -73 -17 -101 9 -25 23 -25
23 -25 3 0 -40 12 -54 74 -85 l61 -31 -35 -10 c-42 -11 -93 -4 -127 18 -38 25
-60 88 -81 227 -11 70 -28 144 -38 165 l-19 38 40 37 c26 24 50 38 68 38 27 0
28 -1 21 -49z m671 39 c13 -21 146 -50 290 -64 83 -8 174 -23 203 -32 99 -32
177 -125 197 -235 l7 -36 -49 7 c-26 5 -95 21 -153 36 -133 35 -264 39 -359
10 -74 -23 -85 -40 -47 -71 l28 -22 -75 -32 c-108 -44 -188 -61 -303 -61 -119
0 -208 21 -200 48 3 9 10 36 17 60 14 48 58 92 92 92 20 1 20 2 -8 26 -41 34
-140 92 -171 100 -46 12 -4 24 81 24 129 0 195 -29 195 -85 0 -24 3 -22 73 31
81 62 117 105 144 170 18 44 27 52 38 34z m-5355 -1515 c0 -29 -39 -53 -114
-70 -96 -21 -130 -46 -123 -89 17 -104 88 -212 171 -261 81 -47 219 -65 354
-46 53 7 55 7 150 -52 138 -84 282 -153 392 -187 95 -30 254 -59 320 -60 31
-1 26 -4 -41 -29 -208 -77 -386 -215 -532 -412 l-27 -36 -207 -6 c-340 -11
-569 -47 -750 -117 -80 -31 -203 -104 -203 -121 0 -21 35 -61 74 -84 70 -40
144 -55 354 -70 258 -19 324 -35 391 -91 l32 -27 -32 -33 c-48 -49 -81 -55
-274 -48 -159 6 -174 5 -228 -16 -69 -26 -95 -57 -132 -160 -40 -113 -42 -116
-122 -123 -37 -3 -117 -18 -178 -31 -163 -38 -295 -32 -295 13 0 29 55 97 107
132 65 45 132 107 148 138 26 52 -11 91 -85 91 l-40 0 25 47 c32 61 32 94 -1
133 -23 27 -28 29 -43 17 -48 -43 -81 -50 -239 -51 l-154 -1 6 40 c10 65 61
156 120 214 l55 54 55 -11 c49 -10 135 -55 136 -71 1 -3 11 -19 24 -35 l24
-28 47 43 c27 24 77 88 113 142 35 53 82 113 104 131 36 31 39 38 33 68 -13
60 -35 89 -82 110 -53 24 -132 22 -317 -7 -70 -11 -116 -14 -129 -8 -18 8 -11
17 68 89 88 80 115 116 115 153 0 36 35 44 159 38 260 -13 446 -104 486 -240
8 -28 15 -63 15 -78 0 -32 24 -39 134 -39 198 0 475 80 656 190 96 58 93 55
85 79 -8 26 -56 51 -153 80 -60 18 -76 27 -92 54 -11 18 -20 44 -20 59 0 32 8
29 -185 67 -378 76 -725 105 -1253 105 l-403 1 28 22 c77 62 147 78 444 103
130 10 259 24 285 31 67 16 146 54 171 81 39 43 38 63 -6 111 -23 24 -41 53
-41 64 0 20 8 21 253 26 138 3 268 10 287 15 54 15 80 14 80 -3z m619 -150
c34 -15 61 -34 61 -41 0 -21 -51 -63 -97 -80 -49 -19 -162 -16 -187 5 -11 9
-16 30 -16 68 0 51 2 55 33 69 46 21 132 12 206 -21z m-2089 -41 c0 -20 -7
-48 -16 -63 -20 -34 -93 -84 -162 -110 -30 -12 -85 -49 -130 -87 -42 -36 -158
-120 -257 -187 -245 -164 -317 -220 -411 -319 -80 -85 -136 -174 -168 -270
-23 -68 -36 -203 -28 -284 l8 -72 -23 15 c-33 22 -62 73 -72 128 -18 96 18
240 115 458 24 55 44 103 44 107 0 11 -66 -5 -94 -23 -13 -9 -48 -44 -77 -77
-30 -34 -71 -71 -91 -81 l-38 -19 0 30 c0 39 -16 70 -35 70 -49 0 -142 -136
-159 -233 -22 -122 -4 -313 55 -571 17 -70 28 -133 26 -139 -7 -21 -95 80
-125 144 -53 114 -65 188 -70 460 l-4 245 37 75 c161 320 452 521 975 674 127
37 651 163 683 164 13 1 17 -7 17 -35z m3738 -39 c29 -9 52 -20 52 -25 0 -4
-16 -18 -36 -30 -44 -28 -143 -37 -213 -20 -52 12 -56 16 -45 45 17 43 145 59
242 30z m1928 -62 c-3 -16 -10 -129 -16 -253 -6 -124 -15 -252 -21 -285 -21
-121 -72 -196 -153 -230 -37 -16 -38 -16 -32 2 14 36 35 141 50 253 41 302 53
355 93 435 21 44 69 105 81 105 2 0 2 -12 -2 -27z m-2871 -83 c69 -33 81 -46
66 -74 -26 -49 -89 -59 -158 -25 -44 21 -73 60 -73 99 0 18 6 20 63 20 40 0
76 -7 102 -20z m2222 -358 c29 -18 -58 -146 -120 -175 -75 -35 -77 -34 -77 25
0 68 25 118 70 140 36 18 106 24 127 10z m-1807 -327 l0 -125 -39 -25 c-64
-43 -140 -66 -233 -72 -91 -6 -110 2 -64 27 37 19 52 64 33 94 -31 46 -192
116 -268 116 -63 0 -13 41 78 65 35 9 140 19 266 24 115 5 211 12 214 15 4 3
8 6 10 6 2 0 3 -56 3 -125z m1100 -87 c0 -73 -49 -128 -140 -157 -39 -12 -223
-41 -228 -36 -2 2 32 40 75 84 95 96 164 132 286 150 4 1 7 -18 7 -41z m-1522
-200 c6 -18 13 -54 17 -80 8 -62 30 -88 79 -91 39 -2 39 -2 65 51 14 30 48 26
84 -11 47 -46 107 -62 210 -54 115 9 181 29 326 96 160 75 209 91 274 91 l52
-1 -53 -49 c-65 -61 -167 -122 -289 -171 -80 -33 -141 -52 -369 -115 -65 -18
-79 -39 -105 -156 -11 -50 -24 -99 -29 -108 -19 -36 -67 -43 -316 -48 l-240
-4 -67 -117 c-83 -146 -131 -202 -205 -238 -52 -26 -66 -28 -172 -28 l-115 0
-54 -79 c-30 -44 -72 -97 -93 -118 -34 -34 -40 -37 -65 -27 -82 30 -138 98
-149 181 l-6 44 139 12 c215 18 383 69 519 157 l66 42 -33 26 c-61 45 -99 49
-408 43 -312 -7 -300 -5 -366 -73 -53 -54 -82 -110 -104 -194 l-19 -74 -152
-3 -152 -3 8 23 c3 13 33 75 65 138 33 63 59 122 59 131 0 14 16 20 73 29 93
16 181 49 287 109 l85 48 255 -5 c262 -4 414 7 599 44 103 20 262 70 341 105
73 33 170 90 170 100 0 3 -12 12 -27 20 -22 11 -84 14 -290 14 -191 0 -265 3
-274 12 -10 10 -1 23 39 61 64 59 69 92 20 113 -50 21 -169 16 -313 -15 -71
-15 -140 -29 -152 -32 -22 -4 -23 -2 -23 67 0 67 2 73 33 104 52 52 95 59 292
49 214 -11 393 -9 425 4 40 17 48 14 58 -20z m2352 -248 c29 -107 -48 -194
-229 -260 -97 -35 -249 -75 -257 -67 -12 12 19 108 47 147 37 51 100 92 204
130 44 17 109 43 145 59 36 16 68 30 72 30 4 1 12 -17 18 -39z m164 -495 c28
-6 28 -6 10 -27 -49 -54 -171 -129 -424 -263 -192 -101 -284 -154 -320 -183
-22 -18 -23 -21 -10 -53 31 -80 93 -133 180 -155 42 -10 45 -13 41 -40 -5 -45
-41 -135 -72 -180 -33 -49 -83 -88 -146 -116 -44 -19 -47 -19 -59 -3 -7 9 -18
47 -24 85 -19 111 -17 110 -150 46 -131 -63 -299 -120 -480 -165 -118 -29
-251 -53 -258 -46 -2 2 1 19 7 38 19 56 58 84 182 127 137 47 174 79 185 158
l6 48 64 11 c169 29 268 113 438 367 118 179 173 246 199 246 25 0 45 -27 52
-72 10 -58 20 -68 69 -68 58 0 127 37 213 114 39 35 88 76 108 92 37 28 117
55 145 49 8 -2 28 -6 44 -10z m-5865 -38 c83 -135 463 -383 776 -507 175 -69
221 -80 354 -80 145 0 180 -8 393 -89 221 -84 230 -85 548 -86 371 0 560 25
806 106 172 57 270 115 375 220 l87 87 80 3 c73 4 87 8 193 62 103 52 189 81
189 63 0 -4 -9 -25 -20 -47 -37 -72 -112 -134 -301 -247 -117 -70 -189 -135
-189 -171 0 -54 -40 -184 -81 -260 -54 -101 -135 -199 -242 -289 l-86 -73
-128 10 c-219 19 -356 66 -441 152 -23 23 -41 43 -40 44 2 2 39 -3 83 -11 99
-16 316 -18 387 -3 135 28 245 121 271 230 l7 26 -63 -9 c-122 -16 -287 -50
-587 -123 -552 -133 -728 -163 -1005 -172 -202 -6 -353 9 -516 51 -135 35
-181 58 -279 136 -94 75 -145 101 -280 144 -109 35 -136 54 -255 182 -98 105
-150 147 -199 160 -25 6 -25 7 -10 36 18 35 9 71 -30 122 -30 40 -56 91 -56
111 0 27 43 16 82 -22 31 -31 42 -36 56 -27 30 19 26 57 -11 106 -45 58 -57
82 -57 108 0 28 43 66 88 78 65 17 79 14 101 -21z m6080 -144 c21 -5 23 -10
17 -50 -11 -85 -57 -136 -149 -167 -72 -24 -89 -22 -81 12 25 115 64 174 129
197 46 16 52 17 84 8z m-1400 -1205 c-128 -182 -230 -247 -412 -264 l-77 -7 0
34 c0 31 -8 47 -62 128 -28 41 -23 75 17 110 60 52 116 63 310 56 94 -3 186
-1 205 4 72 19 73 15 19 -61z m-1381 -1525 c27 -4 37 -14 57 -53 39 -78 136
-199 236 -295 237 -228 512 -396 1064 -648 138 -63 300 -138 361 -166 61 -28
145 -59 185 -67 106 -23 283 -13 579 31 374 56 562 52 687 -14 43 -23 110 -77
103 -83 -3 -2 -57 0 -120 6 -121 10 -365 0 -710 -29 -281 -24 -547 -20 -675
10 l-30 8 44 -46 c129 -134 348 -190 1016 -262 306 -33 315 -34 315 -52 0 -8
24 -40 54 -71 61 -65 76 -90 76 -126 0 -29 -13 -32 -57 -15 -38 14 -71 46 -94
92 l-20 37 -412 0 c-542 -1 -623 9 -917 115 -96 35 -203 69 -238 75 -75 15
-193 8 -245 -14 l-37 -15 0 -88 c1 -169 56 -332 196 -579 l83 -147 -49 6 c-75
9 -135 40 -194 100 -130 133 -214 401 -232 738 -6 113 -7 117 -31 128 -94 43
-335 26 -446 -30 -33 -17 -38 -18 -43 -4 -23 59 44 138 144 171 73 24 253 25
325 1 l48 -15 -22 36 c-81 135 -230 314 -346 418 -218 194 -458 352 -915 603
l-187 103 14 28 c18 34 69 79 112 97 72 30 206 37 321 16z m-5828 -806 c42
-14 48 -34 21 -69 -27 -34 -79 -46 -241 -57 -74 -5 -144 -12 -155 -16 -13 -5
-7 5 19 33 86 91 257 143 356 109z m-82 -153 c43 -12 23 -103 -37 -167 -61
-67 -159 -91 -254 -63 -66 19 -68 26 -33 103 28 59 79 99 154 119 51 14 133
17 170 8z m-288 -547 c0 -2 -51 -54 -112 -114 -195 -191 -316 -284 -481 -367
-107 -54 -242 -104 -252 -94 -12 12 19 89 51 126 40 47 107 80 258 126 65 20
139 46 164 58 60 31 119 99 129 151 7 35 13 42 38 48 17 3 56 20 89 38 48 25
116 42 116 28z"/>
<path d="M3707 9056 c-79 -29 -111 -86 -112 -197 0 -67 4 -83 39 -154 45 -92
154 -208 224 -239 41 -19 43 -19 84 0 126 57 230 238 261 455 l5 37 -61 16
c-34 9 -114 31 -177 50 -143 42 -212 50 -263 32z"/>
<path d="M3537 8224 c-41 -13 -51 -21 -64 -52 -25 -59 -13 -119 51 -248 31
-64 56 -121 56 -127 1 -36 16 -38 86 -12 162 61 251 153 290 297 13 51 13 54
-9 71 -91 74 -288 108 -410 71z"/>
<path d="M3618 7557 c-26 -8 -65 -25 -86 -40 -35 -23 -41 -32 -47 -74 -12 -93
23 -224 80 -299 23 -30 28 -32 57 -24 46 14 107 59 141 105 16 22 54 89 83
150 60 123 60 121 -20 162 -60 30 -142 38 -208 20z"/>
</g>
</svg>
